<svg width="157" height="131" viewBox="0 0 157 131" fill="none" xmlns="http://www.w3.org/2000/svg">
<g id="Isolation_Mode" clip-path="url(#clip0_47_7380)">
<path id="&#38;lt;Path&#38;gt;" d="M34.0011 56.9161C41.5803 52.4253 48.6677 49.1459 55.3664 46.9209C54.0207 42.9552 52.3223 39.214 50.251 35.7565C57.1546 37.1612 62.7388 40.0709 67.3714 43.9486C73.6444 42.9415 79.6043 42.8702 85.4367 43.4629C81.8208 46.2434 78.3133 49.1378 74.9281 52.1529C78.4949 57.0548 81.299 62.6284 83.6222 68.4413C79.147 64.2085 74.3418 60.4708 68.777 57.8734C65.5316 61.0263 62.4015 64.2966 59.404 67.6666C59.0577 63.1283 58.4346 58.7308 57.4898 54.5124C50.8253 53.5713 43.1332 54.1575 34.0011 56.9161Z" fill="#FD2A2A"/>
<path id="&#38;lt;Path&#38;gt;_2" d="M4.20714 73.0774C6.98513 68.5529 9.8483 64.8228 12.7959 61.7829C10.937 59.9694 8.96146 58.3754 6.85924 57.0391C10.9585 55.932 14.7845 56.0139 18.3763 56.8889C21.4473 54.6362 24.6263 52.9729 27.9192 51.7115C26.7731 54.2186 25.7279 56.7667 24.7732 59.3419C28.0861 61.0658 31.1841 63.3674 34.093 65.9306C30.4857 64.8231 26.8427 64.07 23.115 64.1575C22.2786 66.7736 21.5396 69.4203 20.8944 72.0872C19.4099 69.688 17.8154 67.4423 16.104 65.3813C12.2595 66.6742 8.30781 69.0821 4.20372 73.0844L4.20714 73.0774Z" fill="#FD2A2A"/>
<path id="&#38;lt;Path&#38;gt;_3" d="M97.3575 47.1005C106.923 50.0217 115.076 53.3551 122.012 57.0854C124.442 53.4103 126.43 49.6131 127.883 45.7084C131.827 52.0068 133.476 58.2755 133.566 64.4436C139.124 68.6553 143.643 73.2384 147.492 78.1663C142.372 77.1974 137.243 76.3883 132.094 75.7598C130.503 81.776 127.754 87.6472 124.449 93.3139C124.782 87.025 124.435 80.817 122.53 74.7687C117.362 74.3382 112.191 74.0709 107.015 73.9738C110.693 70.6964 114.052 67.2962 117.006 63.7667C112.847 57.9592 106.589 52.3741 97.3575 47.1005Z" fill="#FD2A2A"/>
</g>
<defs>
<clipPath id="clip0_47_7380">
<rect width="79.1269" height="135.519" fill="white" transform="matrix(0.4412 -0.897409 -0.897409 -0.4412 121.615 130.8)"/>
</clipPath>
</defs>
</svg>
